# xmcd
#
# Track frame offsets: 
#        150
#        16335
#        32997
#        50165
#        65110
#        76327
#        88515
#        103365
#        114015
#        133655
#        152550
#        171427
#        188615
#        196337
#
# Disc length: 2959 seconds
#
# Revision: 1
# Processed by: cddbd v1.5.2PL0 Copyright (c) Steve Scherf et al.
# Submitted via: ExactAudioCopyFreeDBPlugin 1.0
#
DISCID=bc0b8d0e
DTITLE=梁咏琪 - G FOR GIRL LIVE 2002 CD2
DYEAR=2002
DGENRE=Pop
TTITLE0=COVER GIRL
TTITLE1=我@你
TTITLE2=至死不遇
TTITLE3=KISS ME
TTITLE4=我钟意
TTITLE5=新居
TTITLE6=I'LL BE LOVING YOU
TTITLE7=爱自己
TTITLE8=嫌弃
TTITLE9=一个为你甘去蹈火海的人
TTITLE10=TODAY
TTITLE11=花火
TTITLE12=TALK
TTITLE13=灰姑娘
EXTD=YEAR: 2002 ID3G: 13\n
EXTT0=
EXTT1=
EXTT2=
EXTT3=
EXTT4=
EXTT5=
EXTT6=
EXTT7=
EXTT8=
EXTT9=
EXTT10=
EXTT11=
EXTT12=
EXTT13=
PLAYORDER=
